<svg width="10" height="11" viewBox="0 0 10 11" fill="none" xmlns="http://www.w3.org/2000/svg">
<path d="M0.417497 9.59121C0.151819 9.91292 0.19724 10.3891 0.518947 10.6548C0.840655 10.9204 1.31683 10.875 1.5825 10.5533L0.417497 9.59121ZM9.24408 0.928488C9.20446 0.513144 8.83564 0.208558 8.42029 0.248177L1.65186 0.893803C1.23652 0.933422 0.931935 1.30224 0.971553 1.71759C1.01117 2.13293 1.37999 2.43752 1.79534 2.3979L7.81172 1.82401L8.38561 7.84039C8.42523 8.25573 8.79405 8.56032 9.20939 8.5207C9.62474 8.48108 9.92932 8.11226 9.8897 7.69692L9.24408 0.928488ZM1.5825 10.5533L9.07453 1.48128L7.90953 0.519172L0.417497 9.59121L1.5825 10.5533Z" fill="white"/>
</svg>
