<svg width="2" height="8" viewBox="0 0 2 8" fill="none" xmlns="http://www.w3.org/2000/svg">
<path d="M0.142853 0.857143C0.142853 1.08447 0.233159 1.30249 0.393904 1.46323C0.55465 1.62398 0.772667 1.71429 0.999996 1.71429C1.22732 1.71429 1.44534 1.62398 1.60609 1.46323C1.76683 1.30249 1.85714 1.08447 1.85714 0.857143C1.85714 0.629814 1.76683 0.411797 1.60609 0.251051C1.44534 0.0903058 1.22732 0 0.999996 0C0.772667 0 0.55465 0.0903058 0.393904 0.251051C0.233159 0.411797 0.142853 0.629814 0.142853 0.857143ZM1.42857 2.85714H0.571424C0.492853 2.85714 0.428567 2.92143 0.428567 3V7.85714C0.428567 7.93571 0.492853 8 0.571424 8H1.42857C1.50714 8 1.57142 7.93571 1.57142 7.85714V3C1.57142 2.92143 1.50714 2.85714 1.42857 2.85714Z" fill="#D6D8E7"/>
</svg>
