<svg width="18" height="21" viewBox="0 0 18 21" fill="none" xmlns="http://www.w3.org/2000/svg">
<path d="M17.5201 13.2097L15.7201 11.3996V6.93965C15.744 5.28347 15.1679 3.67456 14.0982 2.40999C13.0285 1.14541 11.5373 0.310585 9.90007 0.0596501C8.94989 -0.0654827 7.98394 0.013465 7.06668 0.291226C6.14942 0.568986 5.30194 1.03917 4.5808 1.67041C3.85965 2.30165 3.28142 3.07943 2.88468 3.95184C2.48794 4.82426 2.28182 5.77126 2.28007 6.72965V11.3996L0.480073 13.2097C0.253979 13.4395 0.100657 13.7309 0.0392733 14.0475C-0.0221099 14.364 0.0111694 14.6916 0.134951 14.9893C0.258732 15.287 0.467524 15.5416 0.735224 15.7213C1.00292 15.901 1.31766 15.9978 1.64007 15.9997H5.00007V16.3397C5.04678 17.3549 5.49403 18.3101 6.2438 18.9962C6.99357 19.6822 7.98473 20.0431 9.00007 19.9997C10.0154 20.0431 11.0066 19.6822 11.7563 18.9962C12.5061 18.3101 12.9534 17.3549 13.0001 16.3397V15.9997H16.3601C16.6825 15.9978 16.9972 15.901 17.2649 15.7213C17.5326 15.5416 17.7414 15.287 17.8652 14.9893C17.989 14.6916 18.0223 14.364 17.9609 14.0475C17.8995 13.7309 17.7462 13.4395 17.5201 13.2097V13.2097ZM11.0001 16.3397C10.9446 16.8207 10.7057 17.2617 10.3331 17.5709C9.96057 17.8802 9.48306 18.0337 9.00007 17.9997C8.51709 18.0337 8.03957 17.8802 7.667 17.5709C7.29443 17.2617 7.05553 16.8207 7.00007 16.3397V15.9997H11.0001V16.3397ZM2.51007 13.9997L3.69007 12.8196C3.87724 12.6336 4.02574 12.4123 4.127 12.1686C4.22826 11.9249 4.28028 11.6636 4.28007 11.3996V6.72965C4.28062 6.05505 4.42546 5.38837 4.70487 4.77436C4.98428 4.16035 5.3918 3.6132 5.90007 3.16965C6.40149 2.71533 6.99565 2.3754 7.64141 2.17338C8.28718 1.97136 8.96914 1.91209 9.64007 1.99965C10.7966 2.18743 11.8463 2.78666 12.596 3.68703C13.3457 4.5874 13.7449 5.72829 13.7201 6.89965V11.3996C13.7186 11.6629 13.769 11.9238 13.8685 12.1675C13.9681 12.4111 14.1147 12.6328 14.3001 12.8196L15.4901 13.9997H2.51007Z" fill="#6E7191"/>
</svg>
