<svg width="24" height="23" viewBox="0 0 24 23" fill="none" xmlns="http://www.w3.org/2000/svg">
<path d="M12.714 5.2349L13.2492 6.8801C13.7558 6.44944 14.3439 6.12502 14.9784 5.9261C15.6864 5.6957 16.3116 5.5661 16.8768 5.4917L16.3608 3.9041C15.7173 3.99676 15.083 4.1445 14.4648 4.3457C13.8383 4.54876 13.2475 4.84881 12.714 5.2349ZM13.8264 8.66089L14.3616 10.3061C14.8682 9.87544 15.4563 9.55102 16.0908 9.35209C16.7988 9.1217 17.424 8.9921 17.9892 8.9177L17.4732 7.3301C16.8297 7.42276 16.1954 7.5705 15.5772 7.7717C14.9504 7.97402 14.3595 8.27412 13.8264 8.66089ZM14.94 12.0857L15.4752 13.7309C15.9818 13.3002 16.5699 12.9758 17.2044 12.7769C17.9124 12.5465 18.5376 12.4169 19.1028 12.3425L18.5868 10.7549C17.9433 10.8476 17.309 10.9953 16.6908 11.1965C16.064 11.3988 15.4731 11.6989 14.94 12.0857ZM6.46556 14.6921L6.98156 16.2797C7.55343 15.9704 8.15281 15.7149 8.77196 15.5165C9.40229 15.305 10.0686 15.2222 10.7316 15.2729L10.1964 13.6277C9.53822 13.6286 8.88429 13.7327 8.25836 13.9361C7.64012 14.136 7.04029 14.389 6.46556 14.6921ZM4.23956 7.8413L4.75556 9.42889C5.32767 9.12008 5.927 8.8646 6.54596 8.6657C7.17629 8.45422 7.84264 8.37139 8.50556 8.4221L7.97156 6.7757C7.31297 6.77715 6.65867 6.88162 6.03236 7.0853C5.41412 7.28522 4.81429 7.53816 4.23956 7.8413ZM5.35196 11.2673L5.86796 12.8549C6.43983 12.5456 7.03921 12.2901 7.65836 12.0917C8.28869 11.8802 8.95504 11.7974 9.61796 11.8481L9.08396 10.2017C8.42582 10.2026 7.77189 10.3067 7.14596 10.5101C6.52729 10.7104 5.92706 10.9637 5.35196 11.2673ZM13.2768 0.691696C11.7002 1.19539 10.3845 2.29816 9.61316 3.7625C8.12874 3.0315 6.41654 2.91298 4.84556 3.4325C1.81796 4.4165 0.0827637 6.5849 0.0827637 6.5849L4.99676 21.6893C5.14796 22.1537 5.77196 22.2617 6.05036 21.8609C6.64916 20.9981 7.80236 19.8713 9.95876 19.1705C12.0204 18.5009 13.5216 19.2353 14.3448 19.8641C14.6712 20.1137 15.1392 19.9361 15.2592 19.5425C15.5616 18.5501 16.3476 17.0945 18.3912 16.4309C20.55 15.7289 22.146 15.9641 23.1384 16.3109C23.6004 16.4717 24.0384 16.0205 23.8884 15.5561L18.9828 0.443296C18.9828 0.443296 16.3044 -0.291104 13.2768 0.691696ZM13.1412 17.3069C11.9093 16.9361 10.593 16.9546 9.37196 17.3597C7.87076 17.8469 6.81956 18.4985 6.13316 19.0445L2.23916 7.0661C2.66876 6.6365 3.66356 5.8157 5.43356 5.2409C7.10036 4.6997 8.46716 5.1629 9.36836 5.6945L13.1412 17.3069ZM21.414 14.0801C20.5368 14.0417 19.3032 14.1329 17.802 14.6213C16.576 15.0108 15.5002 15.7694 14.7216 16.7933L10.9488 5.1809C11.364 4.2209 12.1968 3.0425 13.8648 2.5013C15.6336 1.9265 16.9212 2.0057 17.5212 2.1005L21.414 14.0801Z" fill="white"/>
</svg>
