<svg width="22" height="21" viewBox="0 0 22 21" fill="none" xmlns="http://www.w3.org/2000/svg">
<path d="M13 20.5L10.2 17H5C4.73478 17 4.48043 16.8946 4.29289 16.7071C4.10536 16.5196 4 16.2652 4 16V5.1C4 4.83478 4.10536 4.58043 4.29289 4.39289C4.48043 4.20536 4.73478 4.1 5 4.1H21C21.2652 4.1 21.5196 4.20536 21.7071 4.39289C21.8946 4.58043 22 4.83478 22 5.1V16C22 16.2652 21.8946 16.5196 21.7071 16.7071C21.5196 16.8946 21.2652 17 21 17H15.8L13 20.5ZM14.839 15H20V6.1H6V15H11.161L13 17.3L14.839 15ZM1 0H18V2H2V13H0V1C0 0.734784 0.105357 0.48043 0.292893 0.292893C0.48043 0.105357 0.734784 0 1 0V0Z" fill="white"/>
</svg>
