<svg width="18" height="19" viewBox="0 0 18 19" fill="none" xmlns="http://www.w3.org/2000/svg">
<path d="M0 18C0 18.2652 0.105356 18.5196 0.292892 18.7071C0.480429 18.8947 0.734783 19 1 19H17C17.2652 19 17.5196 18.8947 17.7071 18.7071C17.8946 18.5196 18 18.2652 18 18V7.49003C18.0001 7.33764 17.9654 7.18724 17.8985 7.05033C17.8316 6.91341 17.7343 6.79359 17.614 6.70003L9.614 0.478028C9.43846 0.341473 9.2224 0.267334 9 0.267334C8.7776 0.267334 8.56154 0.341473 8.386 0.478028L0.386 6.70003C0.26572 6.79359 0.168413 6.91341 0.101515 7.05033C0.0346165 7.18724 -0.000104904 7.33764 0 7.49003V18ZM2 17V7.97803L9 2.53403L16 7.97803V17H2ZM14 13H4V15H14V13Z" fill="white"/>
</svg>
