<svg width="20" height="22" viewBox="0 0 20 22" fill="none" xmlns="http://www.w3.org/2000/svg">
<path d="M1.91698 14.2L0.716976 14.921C0.642822 14.9654 0.581442 15.0283 0.538822 15.1034C0.496202 15.1786 0.473801 15.2636 0.473801 15.35C0.473801 15.4364 0.496202 15.5214 0.538822 15.5966C0.581442 15.6718 0.642822 15.7346 0.716976 15.779L9.48698 21.041C9.64251 21.1345 9.82053 21.1838 10.002 21.1838C10.1834 21.1838 10.3614 21.1345 10.517 21.041L19.287 15.779C19.3611 15.7346 19.4225 15.6718 19.4651 15.5966C19.5077 15.5214 19.5302 15.4364 19.5302 15.35C19.5302 15.2636 19.5077 15.1786 19.4651 15.1034C19.4225 15.0283 19.3611 14.9654 19.287 14.921L18.087 14.2L9.99998 19.05L1.91698 14.2ZM1.91698 9.50001L0.716976 10.221C0.642822 10.2654 0.581442 10.3283 0.538822 10.4034C0.496202 10.4786 0.473801 10.5636 0.473801 10.65C0.473801 10.7364 0.496202 10.8214 0.538822 10.8966C0.581442 10.9718 0.642822 11.0346 0.716976 11.079L9.99998 16.65L19.285 11.079C19.3591 11.0346 19.4205 10.9718 19.4631 10.8966C19.5057 10.8214 19.5282 10.7364 19.5282 10.65C19.5282 10.5636 19.5057 10.4786 19.4631 10.4034C19.4205 10.3283 19.3591 10.2654 19.285 10.221L18.085 9.50001L9.99998 14.35L1.91698 9.50001ZM9.48598 0.309009L0.714977 5.57101C0.640823 5.6154 0.579443 5.67826 0.536823 5.75344C0.494204 5.82863 0.471802 5.91358 0.471802 6.00001C0.471802 6.08643 0.494204 6.17139 0.536823 6.24657C0.579443 6.32176 0.640823 6.38462 0.714977 6.42901L9.99998 12L19.285 6.42901C19.3591 6.38462 19.4205 6.32176 19.4631 6.24657C19.5057 6.17139 19.5282 6.08643 19.5282 6.00001C19.5282 5.91358 19.5057 5.82863 19.4631 5.75344C19.4205 5.67826 19.3591 5.6154 19.285 5.57101L10.515 0.309009C10.3594 0.215565 10.1814 0.166199 9.99998 0.166199C9.81853 0.166199 9.64051 0.215565 9.48498 0.309009H9.48598ZM9.99998 2.33201L16.113 6.00001L9.99998 9.66801L3.88698 6.00001L9.99998 2.33201Z" fill="#0088B1"/>
</svg>
