<svg width="21" height="18" viewBox="0 0 21 18" fill="none" xmlns="http://www.w3.org/2000/svg">
<path d="M8.53598 10H6.32898C6.09308 10.6672 5.62891 11.2296 5.0185 11.5876C4.40809 11.9457 3.69074 12.0765 2.99324 11.9568C2.29575 11.8371 1.66301 11.4747 1.20687 10.9337C0.750729 10.3926 0.500549 9.70769 0.500549 9.00001C0.500549 8.29232 0.750729 7.60742 1.20687 7.06635C1.66301 6.52528 2.29575 6.16288 2.99324 6.04321C3.69074 5.92354 4.40809 6.0543 5.0185 6.41237C5.62891 6.77045 6.09308 7.33279 6.32898 8.00001H8.53598L12 2.00001H15.17C15.4059 1.33279 15.87 0.770452 16.4805 0.412375C17.0909 0.0542975 17.8082 -0.0764608 18.5057 0.0432105C19.2032 0.162882 19.8359 0.525277 20.2921 1.06635C20.7482 1.60741 20.9984 2.29232 20.9984 3.00001C20.9984 3.70769 20.7482 4.3926 20.2921 4.93367C19.8359 5.47474 19.2032 5.83713 18.5057 5.9568C17.8082 6.07647 17.0909 5.94571 16.4805 5.58764C15.87 5.22956 15.4059 4.66722 15.17 4.00001H13.154L10.268 9.00001L13.155 14H15.171C15.4069 13.3328 15.871 12.7705 16.4815 12.4124C17.0919 12.0543 17.8092 11.9235 18.5067 12.0432C19.2042 12.1629 19.8369 12.5253 20.2931 13.0663C20.7492 13.6074 20.9994 14.2923 20.9994 15C20.9994 15.7077 20.7492 16.3926 20.2931 16.9337C19.8369 17.4747 19.2042 17.8371 18.5067 17.9568C17.8092 18.0765 17.0919 17.9457 16.4815 17.5876C15.871 17.2296 15.4069 16.6672 15.171 16H12L8.53598 10ZM18 14C17.8022 14 17.6089 14.0587 17.4444 14.1685C17.28 14.2784 17.1518 14.4346 17.0761 14.6173C17.0004 14.8 16.9806 15.0011 17.0192 15.1951C17.0578 15.3891 17.153 15.5673 17.2929 15.7071C17.4327 15.847 17.6109 15.9422 17.8049 15.9808C17.9989 16.0194 18.1999 15.9996 18.3827 15.9239C18.5654 15.8482 18.7216 15.72 18.8314 15.5556C18.9413 15.3911 19 15.1978 19 15C19 14.7348 18.8946 14.4804 18.7071 14.2929C18.5195 14.1054 18.2652 14 18 14ZM3.49998 8.00001C3.3022 8.00001 3.10886 8.05866 2.94441 8.16854C2.77996 8.27842 2.65178 8.4346 2.5761 8.61732C2.50041 8.80005 2.48061 9.00112 2.51919 9.1951C2.55778 9.38908 2.65302 9.56726 2.79287 9.70711C2.93272 9.84697 3.11091 9.94221 3.30489 9.98079C3.49887 10.0194 3.69993 9.99957 3.88266 9.92389C4.06539 9.8482 4.22156 9.72003 4.33145 9.55558C4.44133 9.39113 4.49998 9.19779 4.49998 9.00001C4.49998 8.73479 4.39462 8.48044 4.20708 8.2929C4.01955 8.10536 3.76519 8.00001 3.49998 8.00001ZM18 2.00001C17.8022 2.00001 17.6089 2.05866 17.4444 2.16854C17.28 2.27842 17.1518 2.4346 17.0761 2.61732C17.0004 2.80005 16.9806 3.00112 17.0192 3.1951C17.0578 3.38908 17.153 3.56726 17.2929 3.70711C17.4327 3.84697 17.6109 3.94221 17.8049 3.98079C17.9989 4.01938 18.1999 3.99957 18.3827 3.92389C18.5654 3.8482 18.7216 3.72003 18.8314 3.55558C18.9413 3.39113 19 3.19779 19 3.00001C19 2.73479 18.8946 2.48044 18.7071 2.2929C18.5195 2.10536 18.2652 2.00001 18 2.00001Z" fill="white"/>
</svg>
