<svg width="20" height="20" viewBox="0 0 20 20" fill="none" xmlns="http://www.w3.org/2000/svg">
<path d="M10.341 2C10.1144 2.64243 9.99912 3.3188 10 4H2V18H16V10C16.6812 10.0009 17.3576 9.88557 18 9.659V19C18 19.2652 17.8946 19.5196 17.7071 19.7071C17.5196 19.8946 17.2652 20 17 20H1C0.734784 20 0.48043 19.8946 0.292893 19.7071C0.105357 19.5196 0 19.2652 0 19V3C0 2.73479 0.105357 2.48043 0.292893 2.2929C0.48043 2.10536 0.734784 2 1 2H10.341ZM16 6C16.3956 6 16.7822 5.8827 17.1111 5.66294C17.44 5.44318 17.6964 5.13082 17.8478 4.76537C17.9991 4.39992 18.0387 3.99778 17.9616 3.60982C17.8844 3.22186 17.6939 2.86549 17.4142 2.58579C17.1345 2.30608 16.7781 2.1156 16.3902 2.03843C16.0022 1.96126 15.6001 2.00087 15.2346 2.15224C14.8692 2.30362 14.5568 2.55996 14.3371 2.88886C14.1173 3.21776 14 3.60444 14 4C14 4.53044 14.2107 5.03914 14.5858 5.41422C14.9609 5.78929 15.4696 6 16 6ZM16 8C15.2089 8 14.4355 7.76541 13.7777 7.32588C13.1199 6.88635 12.6072 6.26164 12.3045 5.53074C12.0017 4.79983 11.9225 3.99556 12.0769 3.21964C12.2312 2.44372 12.6122 1.73098 13.1716 1.17157C13.731 0.612165 14.4437 0.231202 15.2196 0.0768607C15.9956 -0.0774802 16.7998 0.00173312 17.5307 0.304484C18.2616 0.607234 18.8864 1.11992 19.3259 1.77772C19.7654 2.43552 20 3.20888 20 4C20 5.06087 19.5786 6.07828 18.8284 6.82843C18.0783 7.57857 17.0609 8 16 8Z" fill="white"/>
</svg>
