<svg width="22" height="20" viewBox="0 0 22 20" fill="none" xmlns="http://www.w3.org/2000/svg">
<path d="M5 9H13V11H5V14L0 10L5 6V9ZM4 16H6.708C7.86269 17.0183 9.28669 17.6819 10.8091 17.9109C12.3316 18.14 13.8878 17.9249 15.291 17.2915C16.6942 16.6581 17.8849 15.6332 18.7201 14.3398C19.5553 13.0465 19.9995 11.5396 19.9995 10C19.9995 8.46042 19.5553 6.95354 18.7201 5.66019C17.8849 4.36683 16.6942 3.34194 15.291 2.7085C13.8878 2.07506 12.3316 1.85997 10.8091 2.08906C9.28669 2.31814 7.86269 2.98166 6.708 4H4C5.25929 2.32094 7.01497 1.08067 9.01832 0.454865C11.0217 -0.170937 13.1712 -0.15054 15.1623 0.513167C17.1534 1.17687 18.8852 2.45024 20.1124 4.1529C21.3396 5.85555 22 7.90118 22 10C22 12.0988 21.3396 14.1444 20.1124 15.8471C18.8852 17.5498 17.1534 18.8231 15.1623 19.4868C13.1712 20.1505 11.0217 20.1709 9.01832 19.5451C7.01497 18.9193 5.25929 17.6791 4 16Z" fill="#ED2E7E"/>
</svg>
