<svg width="20" height="20" viewBox="0 0 20 20" fill="none" xmlns="http://www.w3.org/2000/svg">
<path d="M10 0C11.9778 0 13.9112 0.58649 15.5557 1.6853C17.2002 2.78412 18.4819 4.3459 19.2388 6.17317C19.9957 8.00043 20.1937 10.0111 19.8079 11.9509C19.422 13.8907 18.4696 15.6725 17.0711 17.0711C15.6725 18.4696 13.8907 19.422 11.9509 19.8079C10.0111 20.1937 8.00043 19.9957 6.17317 19.2388C4.3459 18.4819 2.78412 17.2002 1.6853 15.5557C0.58649 13.9112 0 11.9778 0 10C0 7.34784 1.05357 4.8043 2.92893 2.92893C4.8043 1.05357 7.34784 0 10 0ZM10 2C8.41775 2 6.87103 2.46919 5.55544 3.34824C4.23984 4.22729 3.21447 5.47672 2.60896 6.93853C2.00346 8.40034 1.84504 10.0089 2.15372 11.5607C2.4624 13.1126 3.22433 14.538 4.34315 15.6569C5.46197 16.7757 6.88743 17.5376 8.43928 17.8463C9.99113 18.155 11.5997 17.9965 13.0615 17.391C14.5233 16.7855 15.7727 15.7602 16.6518 14.4446C17.5308 13.129 18 11.5823 18 10C18 7.87827 17.1571 5.84344 15.6569 4.34315C14.1566 2.84285 12.1217 2 10 2ZM13.833 5.337C13.9473 5.25637 14.0863 5.21871 14.2257 5.23069C14.365 5.24267 14.4956 5.3035 14.5945 5.40245C14.6933 5.5014 14.754 5.63209 14.7658 5.77144C14.7776 5.91079 14.7398 6.04983 14.659 6.164C12.479 9.21 11.279 10.8433 11.059 11.064C10.7776 11.3454 10.396 11.5035 9.998 11.5035C9.60005 11.5035 9.2184 11.3454 8.937 11.064C8.65561 10.7826 8.49752 10.401 8.49752 10.003C8.49752 9.60505 8.65561 9.2234 8.937 8.942C9.311 8.56867 10.9423 7.36867 13.831 5.342L13.833 5.337ZM15.5 9C15.6978 9 15.8911 9.05865 16.0556 9.16853C16.22 9.27841 16.3482 9.43459 16.4239 9.61732C16.4996 9.80004 16.5194 10.0011 16.4808 10.1951C16.4422 10.3891 16.347 10.5673 16.2071 10.7071C16.0673 10.847 15.8891 10.9422 15.6951 10.9808C15.5011 11.0194 15.3 10.9996 15.1173 10.9239C14.9346 10.8482 14.7784 10.72 14.6685 10.5556C14.5586 10.3911 14.5 10.1978 14.5 10C14.5 9.73478 14.6054 9.48043 14.7929 9.29289C14.9804 9.10536 15.2348 9 15.5 9ZM4.5 9C4.69778 9 4.89112 9.05865 5.05557 9.16853C5.22002 9.27841 5.34819 9.43459 5.42388 9.61732C5.49957 9.80004 5.51937 10.0011 5.48079 10.1951C5.4422 10.3891 5.34696 10.5673 5.20711 10.7071C5.06725 10.847 4.88907 10.9422 4.69509 10.9808C4.50111 11.0194 4.30004 10.9996 4.11732 10.9239C3.93459 10.8482 3.77841 10.72 3.66853 10.5556C3.55865 10.3911 3.5 10.1978 3.5 10C3.5 9.73478 3.60536 9.48043 3.79289 9.29289C3.98043 9.10536 4.23478 9 4.5 9ZM6.818 5.4C6.95732 5.54007 7.05202 5.71826 7.09018 5.91209C7.12833 6.10593 7.10821 6.30672 7.03237 6.48913C6.95652 6.67154 6.82835 6.82741 6.66401 6.93705C6.49968 7.04669 6.30655 7.10521 6.109 7.10521C5.91145 7.10521 5.71832 7.04669 5.55399 6.93705C5.38965 6.82741 5.26148 6.67154 5.18563 6.48913C5.10979 6.30672 5.08967 6.10593 5.12782 5.91209C5.16598 5.71826 5.26068 5.54007 5.4 5.4C5.58753 5.21253 5.84184 5.10721 6.107 5.10721C6.37216 5.10721 6.62647 5.21253 6.814 5.4H6.818ZM10 3.5C10.1978 3.5 10.3911 3.55865 10.5556 3.66853C10.72 3.77841 10.8482 3.93459 10.9239 4.11732C10.9996 4.30004 11.0194 4.50111 10.9808 4.69509C10.9422 4.88907 10.847 5.06725 10.7071 5.20711C10.5673 5.34696 10.3891 5.4422 10.1951 5.48079C10.0011 5.51937 9.80004 5.49957 9.61732 5.42388C9.43459 5.34819 9.27841 5.22002 9.16853 5.05557C9.05865 4.89112 9 4.69778 9 4.5C9 4.23478 9.10536 3.98043 9.29289 3.79289C9.48043 3.60536 9.73478 3.5 10 3.5Z" fill="white"/>
</svg>
