<svg width="22" height="22" viewBox="0 0 22 22" fill="none" xmlns="http://www.w3.org/2000/svg">
<path d="M7.68601 3L10.293 0.392999C10.4805 0.205528 10.7348 0.100212 11 0.100212C11.2652 0.100212 11.5195 0.205528 11.707 0.392999L14.314 3H18C18.2652 3 18.5196 3.10536 18.7071 3.29289C18.8946 3.48043 19 3.73478 19 4V7.686L21.607 10.293C21.7945 10.4805 21.8998 10.7348 21.8998 11C21.8998 11.2652 21.7945 11.5195 21.607 11.707L19 14.314V18C19 18.2652 18.8946 18.5196 18.7071 18.7071C18.5196 18.8946 18.2652 19 18 19H14.314L11.707 21.607C11.5195 21.7945 11.2652 21.8998 11 21.8998C10.7348 21.8998 10.4805 21.7945 10.293 21.607L7.68601 19H4.00001C3.73479 19 3.48044 18.8946 3.2929 18.7071C3.10536 18.5196 3.00001 18.2652 3.00001 18V14.314L0.393006 11.707C0.205535 11.5195 0.10022 11.2652 0.10022 11C0.10022 10.7348 0.205535 10.4805 0.393006 10.293L3.00001 7.686V4C3.00001 3.73478 3.10536 3.48043 3.2929 3.29289C3.48044 3.10536 3.73479 3 4.00001 3H7.68601ZM5.00001 5V8.515L2.51501 11L5.00001 13.485V17H8.51501L11 19.485L13.485 17H17V13.485L19.485 11L17 8.515V5H13.485L11 2.515L8.51501 5H5.00001ZM11 15C10.2089 15 9.43552 14.7654 8.77773 14.3259C8.11993 13.8864 7.60724 13.2616 7.30449 12.5307C7.00174 11.7998 6.92252 10.9956 7.07686 10.2196C7.23121 9.44371 7.61217 8.73098 8.17158 8.17157C8.73099 7.61216 9.44372 7.2312 10.2196 7.07686C10.9956 6.92252 11.7998 7.00173 12.5307 7.30448C13.2616 7.60723 13.8864 8.11992 14.3259 8.77772C14.7654 9.43551 15 10.2089 15 11C15 12.0609 14.5786 13.0783 13.8284 13.8284C13.0783 14.5786 12.0609 15 11 15ZM11 13C11.3956 13 11.7822 12.8827 12.1111 12.6629C12.44 12.4432 12.6964 12.1308 12.8478 11.7654C12.9991 11.3999 13.0387 10.9978 12.9616 10.6098C12.8844 10.2219 12.6939 9.86549 12.4142 9.58578C12.1345 9.30608 11.7781 9.1156 11.3902 9.03843C11.0022 8.96126 10.6001 9.00086 10.2346 9.15224C9.86919 9.30361 9.55683 9.55996 9.33707 9.88886C9.1173 10.2178 9.00001 10.6044 9.00001 11C9.00001 11.5304 9.21072 12.0391 9.58579 12.4142C9.96087 12.7893 10.4696 13 11 13Z" fill="#6E7191"/>
</svg>
