<svg width="83" height="20" viewBox="0 0 83 20" fill="none" xmlns="http://www.w3.org/2000/svg">
<path d="M13.5355 13.3565C13.5355 16.536 11.4092 18.7693 7.1559 18.7693H0.724609V0.113281H7.33945C10.5686 0.113281 12.4062 2.10913 12.4062 4.55378C12.4228 5.38402 12.1818 6.19899 11.7164 6.8864C11.2509 7.5738 10.5839 8.09981 9.80735 8.39194C11.9077 8.91546 13.5355 10.571 13.5355 13.3565ZM3.69101 2.74063V7.55112H6.73615C8.60025 7.55112 9.54508 6.52762 9.54508 5.0814C9.54508 3.63518 8.60025 2.74268 6.73615 2.74268L3.69101 2.74063ZM10.5932 13.0673C10.5932 11.1738 9.41164 9.8617 6.91816 9.8617H3.68897V16.1414H6.97031C9.41367 16.1414 10.5952 14.9854 10.5952 13.0673H10.5932Z" fill="white"/>
<path d="M15.217 11.9382C15.217 7.34009 18.8138 4.84375 22.358 4.84375C25.9021 4.84375 29.4984 7.34009 29.4984 11.9382C29.4984 16.5363 25.9016 19.0332 22.358 19.0332C18.8143 19.0332 15.217 16.5368 15.217 11.9382ZM26.6102 11.9382C26.6102 9.12663 24.5892 7.4972 22.358 7.4972C21.2087 7.53816 20.1201 8.02396 19.3215 8.85228C18.5229 9.68061 18.0766 10.7868 18.0766 11.9379C18.0766 13.0891 18.5229 14.1953 19.3215 15.0236C20.1201 15.8519 21.2087 16.3377 22.358 16.3787C24.5892 16.3787 26.6102 14.7498 26.6102 11.9382Z" fill="white"/>
<path d="M53.1259 5.10547L48.0592 18.7693H45.3817L41.5752 8.65244L37.7683 18.7693H35.0908L30.0246 5.10547H32.9118L36.4825 15.2485L40.2362 5.10547H42.9138L46.668 15.2485L50.2116 5.10547H53.1259Z" fill="white"/>
<path d="M59.2449 7.44288V14.9319C59.2449 15.72 59.6652 16.3239 60.7414 16.3239C61.172 16.3191 61.5985 16.2392 62.0017 16.0879V18.3734C61.3696 18.7791 60.6247 18.9724 59.8753 18.9251C57.8011 18.9251 56.3312 17.9016 56.3312 15.457V7.44288H54.4395V5.10415H56.3312V1.60938H59.2454V5.10415H62.0022V7.44288H59.2449Z" fill="white"/>
<path d="M64.3651 0.113281H67.2523V2.71453H64.3651V0.113281ZM64.3651 5.10545H67.2523V18.7693H64.3651V5.10545Z" fill="white"/>
<path d="M82.9254 13.0416H72.2143C72.6611 15.4069 74.5247 16.6156 76.8612 16.6156C78.258 16.6532 79.6142 16.1439 80.6416 15.196L82.0067 16.6156C81.3346 17.4012 80.4954 18.0261 79.5505 18.4444C78.6056 18.8628 77.5791 19.0639 76.5463 19.0332C72.8447 19.0332 69.4846 16.4841 69.4846 11.9382C69.4846 7.34009 72.8713 4.84375 76.3357 4.84375C79.8 4.84375 83.5819 7.31349 82.9254 13.0416ZM72.1887 10.8876H80.3527C80.1952 8.52224 78.3076 7.31347 76.3648 7.31347C75.3501 7.2858 74.3613 7.63603 73.5898 8.29631C72.8183 8.9566 72.319 9.87996 72.1887 10.8876Z" fill="white"/>
</svg>
